<svg xmlns="http://www.w3.org/2000/svg" viewBox="0 0 158.61 160.44"><defs><style>.cls-1{fill:#fff;}</style></defs><g id="Layer_2" data-name="Layer 2"><g id="Layer_1-2" data-name="Layer 1"><path class="cls-1" d="M56.55,43.68C53.48,52,51,60.46,50.72,69.34c-.07,2.24-1.48,2.24-3,2.34A36.33,36.33,0,0,0,23.38,82.93C16.82,61,30.78,44.85,56.55,43.68Z"/><path class="cls-1" d="M32.58,111.05c-4.1-6.21-6.5-12.81-8.47-19.62a4,4,0,0,1,1-4.07,32.06,32.06,0,0,1,22-11.26c2.34-.22,3.5.36,3.51,2.74a73.78,73.78,0,0,0,3.22,19.57c.39,1.37.6,2.57-1.49,2.75C44.58,101.83,38.29,105.63,32.58,111.05Z"/><path class="cls-1" d="M69.17,126.08c-4.42,1.89-8.42,3.88-11.34,7.37-1.17,1.4-2.17,1-3.33.26a77,77,0,0,1-17.78-16.45c-1.33-1.68-1.12-2.73.29-4.19,4.59-4.77,10.27-7.06,16.7-7.84,1.63-.2,2.62.07,3.39,1.9A73.14,73.14,0,0,0,69.17,126.08Z"/><path class="cls-1" d="M74.72,18.44c-6.23,6-11.53,12.1-15.22,19.4-.56,1.12-1.92,1.08-3.1,1.23C40.76,41.09,38.63,41.9,27.25,50,30.49,31.62,53.28,19.49,74.72,18.44Z"/><path class="cls-1" d="M18,81c-5-5-9.73-8.47-15.51-10.16C.7,70.28.26,69.27.47,67.46A77.31,77.31,0,0,1,5.6,47.38c.82-2,1.62-2.4,3.68-1.72,7.37,2.45,11,8.18,9.64,15.7A76.18,76.18,0,0,0,18,81Z"/><path class="cls-1" d="M23.77,104.91c-5.93-4.11-11.38-6.4-17.48-6.52-2,0-2.53-1-3-2.51A84.55,84.55,0,0,1,0,77.84c-.23-2.48.47-3.48,3-2.29C11.27,79.42,17.81,84.85,20.4,94,21.32,97.29,22.4,100.5,23.77,104.91Z"/><path class="cls-1" d="M21.81,50.13a27.31,27.31,0,0,0-13-9.34A83.29,83.29,0,0,1,21.41,23.91c3.33-3.47,5.54-.7,7.54,1s5.54,3.27,2.55,7.14C27.44,37.34,24.81,43.44,21.81,50.13Z"/><path class="cls-1" d="M5.94,102.65c14.75,2,23.49,11.32,31.7,22.62a73,73,0,0,0-18-3.74,4.91,4.91,0,0,1-3.78-2A69.79,69.79,0,0,1,5.94,102.65Z"/><path class="cls-1" d="M93.11,141.54c-8.47,1.85-25.27-.55-32-4.46,4.81-6.94,10.28-8.2,16.49-3.83C78.71,133.85,88.6,139.87,93.11,141.54Z"/><path class="cls-1" d="M56.71,9.18a78,78,0,0,0-18.88,15c-1.11,1.23-1.86,2.24-3.27.25-1.74-2.47-4.34-4-7.11-5.84C35.6,11.67,44.88,8.86,56.71,9.18Z"/><path class="cls-1" d="M93.75,8a66.79,66.79,0,0,1-26.06,6.77c-6,.4-11.78,2.61-17.53,4.51C54.86,7.81,87.84,3.93,93.75,8Z"/><path class="cls-1" d="M23.19,126.42c12.3.63,21.87,7.92,32.58,12.88C47.91,142.28,29.49,135.84,23.19,126.42Z"/><path class="cls-1" d="M125.84,13.18c.57-11.67.46-12,.46-13-1.32,10-6,40.5-7.31,55.23-.76,8.38-.76,8.53,7.67,8.74,3.56.1,4.71,1,3.81,4.74-2.54,10.33-4.83,20.72-7.14,31.1-2.6,11.65-5.11,23.32-7.66,35,.11.76-3.37,19.22-4.37,25.22.75-3,6.08-21.61,12.55-23,10-4,14.26-9.06,20-16.43C168.1,89.61,162.71,32.63,125.84,13.18Z"/><path class="cls-1" d="M117.65,0c-1.55,2.62-3.91,9.6-5.89,9.52-20-.8-33.68,9.45-43.5,25.68-15.79,26.1-14.9,66.85,9.55,92,5,4.91,26.51,13.23,27.5,13.59,2.5.91-.57,16.1,0,19.62.68-2.13,8.48-68.7,9.53-75.89.39-2.68-.7-3.45-3.25-3.43-3.64,0-7.3-.49-10.94-.39s-4-1-3-4.37C103.86,53.7,118,3.37,117.65,0ZM92.88,87.42c2.82.15,5.63.24,8.45.65,3,.44,4.32,1.82,4.24,4.94-.09,3-1.15,17-.85,21a3.92,3.92,0,0,1-.33.27c-.26.14-.51.3-.77.45-2-1.37-6.75-6.58-7.19-7.09C85.72,95.31,82.69,81,85.4,65.24c1.93-11.23,7-20.72,17-28C97.44,51.9,92,65.49,87.27,79.35,85.38,84.93,87,87.11,92.88,87.42Z"/></g></g></svg>