<svg version="1.0" xmlns="http://www.w3.org/2000/svg"
 width="1796.000000pt" height="1578.000000pt" viewBox="0 0 1796.000000 1578.000000"
 preserveAspectRatio="xMidYMid meet">

<g transform="translate(0.000000,1578.000000) scale(0.100000,-0.100000)"
fill="#000000" stroke="none">
<path d="M11592 15707 c-26 -109 -281 -2784 -516 -5417 -98 -1092 -98 -1089
-54 -1192 45 -106 136 -132 503 -148 233 -10 292 -19 347 -55 57 -38 73 -75
72 -175 0 -72 -14 -144 -96 -485 -53 -220 -124 -517 -157 -660 -161 -698 -901
-4059 -961 -4370 -12 -60 -78 -366 -146 -680 -343 -1564 -480 -2224 -499
-2400 -3 -33 -8 -73 -11 -90 -13 -92 137 357 235 700 39 137 160 583 260 960
184 692 412 1175 642 1361 64 52 103 73 214 114 108 41 398 185 509 254 346
214 612 473 1002 976 158 202 262 352 367 527 558 924 846 2018 847 3213 0
1092 -280 2194 -777 3055 -430 744 -1000 1324 -1686 1716 l-127 72 0 54 c0 29
7 196 15 371 26 552 35 972 34 1487 -1 419 -10 841 -17 812z"/>
<path d="M10825 13858 c-168 -351 -207 -425 -255 -489 -73 -97 -78 -99 -329
-99 -1031 0 -1928 -408 -2628 -1196 -168 -189 -273 -321 -383 -480 -460 -664
-724 -1266 -914 -2084 -197 -853 -208 -1820 -31 -2708 212 -1059 691 -2019
1376 -2757 138 -149 202 -200 413 -327 317 -191 979 -499 1636 -760 124 -49
233 -97 243 -105 47 -43 67 -247 48 -503 -6 -85 -25 -303 -42 -485 -17 -187
-29 -373 -27 -430 l3 -100 13 80 c39 247 203 1553 463 3695 77 635 171 1406
209 1712 39 306 70 576 70 600 0 88 -56 148 -153 166 -58 11 -456 30 -862 41
-284 8 -318 14 -358 59 -27 30 -36 81 -26 146 5 31 84 327 175 659 961 3497
1174 4290 1344 5012 57 242 106 502 97 511 -2 2 -39 -69 -82 -158z m-1131
-2810 c-39 -130 -377 -1066 -714 -1983 -369 -1004 -502 -1389 -525 -1520 -41
-236 50 -371 283 -420 73 -15 243 -30 452 -40 192 -9 425 -34 507 -55 114 -30
188 -89 228 -185 28 -67 28 -201 1 -690 -36 -652 -48 -932 -45 -1059 l3 -110
-46 -25 -45 -25 -79 66 c-130 110 -397 388 -554 578 -412 498 -664 1008 -794
1610 -62 285 -81 487 -80 850 1 312 9 425 54 720 133 867 484 1549 1066 2071
94 84 281 237 292 239 2 0 0 -10 -4 -22z"/>
<path d="M8810 13534 c-88 -6 -209 -24 -290 -44 -63 -15 -118 -18 -350 -18
-493 -1 -889 -61 -1296 -198 -447 -150 -893 -408 -1255 -727 l-54 -47 140 49
c581 203 920 283 1335 316 696 55 1265 202 1870 480 83 39 148 59 310 96 142
32 197 48 180 53 -89 21 -471 47 -590 40z"/>
<path d="M5621 13289 c-590 -42 -1102 -209 -1547 -505 -116 -76 -304 -220
-304 -232 0 -4 28 -25 63 -46 119 -76 288 -200 352 -258 35 -33 93 -96 129
-142 73 -93 110 -117 154 -97 15 7 107 96 206 197 391 405 794 727 1256 1006
l144 88 -169 -1 c-94 -1 -221 -6 -284 -10z"/>
<path d="M7235 12544 c-384 -40 -737 -115 -1103 -235 -277 -91 -421 -150 -682
-281 -424 -212 -718 -418 -1011 -708 -309 -306 -525 -654 -637 -1025 -31 -101
-57 -214 -50 -220 1 -2 57 35 123 82 533 377 819 522 1218 618 144 35 525 99
767 130 359 45 373 48 416 97 12 12 56 86 98 163 139 251 338 535 554 790 123
145 368 409 478 514 l95 91 -68 -1 c-37 -1 -126 -7 -198 -15z"/>
<path d="M3422 12236 c-150 -72 -602 -605 -905 -1067 -117 -180 -231 -368
-225 -374 2 -2 46 -19 98 -40 312 -119 632 -350 853 -614 l70 -83 12 28 c57
134 226 496 309 664 147 293 251 466 424 703 108 149 134 242 93 333 -26 57
-71 105 -181 192 -52 42 -133 109 -178 148 -113 97 -168 126 -251 131 -55 3
-75 0 -119 -21z"/>
<path d="M5905 10553 c-258 -13 -603 -76 -870 -158 -473 -147 -833 -353 -1120
-640 -319 -319 -504 -677 -580 -1125 -25 -146 -31 -466 -11 -633 25 -218 95
-527 118 -527 6 0 53 42 106 93 364 351 890 629 1357 717 61 11 119 23 130 26
11 2 115 15 230 29 214 24 265 37 299 74 26 28 46 127 46 225 0 102 34 392 66
571 66 359 149 667 305 1119 43 127 79 231 79 233 0 3 -39 2 -155 -4z"/>
<path d="M2135 10415 c-45 -23 -89 -95 -145 -242 -173 -455 -285 -895 -355
-1397 -18 -132 -19 -176 -3 -229 21 -70 63 -99 216 -152 382 -132 708 -343
1080 -699 l83 -80 -8 95 c-12 141 -9 715 5 869 17 183 39 356 68 535 29 175
33 367 10 485 -61 322 -254 566 -571 725 -193 96 -311 124 -380 90z"/>
<path d="M1643 8070 c-52 -22 -67 -99 -53 -268 39 -445 114 -862 231 -1284 71
-255 92 -273 348 -294 91 -7 193 -18 226 -24 315 -58 652 -204 978 -422 48
-32 87 -53 87 -47 0 7 -42 145 -94 308 -52 163 -120 379 -151 480 -64 209 -98
298 -160 423 -206 409 -536 724 -1055 1005 -207 112 -305 145 -357 123z"/>
<path d="M5315 7993 c-16 -2 -82 -10 -147 -18 -459 -57 -936 -271 -1303 -586
-97 -83 -272 -259 -322 -324 -44 -57 -67 -134 -60 -198 13 -132 202 -694 330
-982 110 -248 322 -632 354 -643 7 -2 41 23 75 55 244 230 588 454 861 562
199 78 373 121 597 146 89 10 128 24 149 52 35 44 32 65 -62 408 -40 143 -110
485 -126 610 -6 44 -17 132 -25 195 -9 63 -20 198 -26 300 -19 322 -30 364
-98 399 -37 19 -142 32 -197 24z"/>
<path d="M2069 5868 c25 -65 96 -219 161 -347 162 -325 343 -613 561 -897 89
-115 129 -154 197 -188 59 -29 72 -32 262 -51 433 -44 927 -149 1268 -269 52
-19 59 -32 -92 169 -612 811 -1148 1247 -1816 1477 -101 34 -327 92 -425 107
-38 6 -82 14 -98 17 -25 5 -26 4 -18 -18z"/>
<path d="M5747 5669 c-442 -68 -795 -225 -1101 -489 -159 -137 -216 -215 -216
-293 0 -61 15 -90 108 -207 354 -442 807 -863 1282 -1192 127 -88 170 -108
226 -108 47 0 48 1 173 123 69 68 153 144 186 170 129 99 337 216 545 307 52
23 98 45 102 49 5 4 -32 54 -80 112 -197 235 -422 558 -578 829 -42 74 -132
248 -200 385 -117 239 -147 286 -200 313 -40 21 -120 21 -247 1z"/>
<path d="M3430 4001 c0 -12 94 -126 170 -205 408 -426 1195 -791 1844 -855
194 -19 333 -12 490 25 l68 17 -268 137 c-148 75 -367 189 -487 254 -692 371
-1079 523 -1512 596 -123 21 -305 39 -305 31z"/>
<path d="M7095 3659 c-211 -31 -430 -182 -608 -419 l-56 -75 32 -17 c314 -167
856 -302 1467 -365 233 -23 699 -23 870 0 69 10 128 21 133 26 4 4 -45 27
-110 51 -268 99 -504 207 -655 301 -101 62 -198 137 -198 152 -1 34 -68 83
-161 120 -37 14 -95 45 -130 67 -135 87 -277 142 -411 160 -83 11 -91 11 -173
-1z"/>
</g>
</svg>
